# xmcd CD database file
# Copyright (C) 1993-2000  Ti Kan
#
# Track frame offsets:
#	150
#	12437
#	20400
#	31245
#	41296
#	49984
#	61539
#	67965
#	76599
#	82929
#	92243
#	103871
#	116882
#	124391
#	135341
#	141986
#	153758
#	162698
#	168521
#	173909
#
# Disc length: 2454 seconds
#
# Revision: 1
# Processed by: cddbd v1.4PL0 Copyright (c) Steve Scherf et al.
# Submitted via: xmcd 2.6 PL0
#
DISCID=01099414
DTITLE=Hylo Brown and And The Blueridge Mountain Boys - 20 Old-Time Favor
DTITLE=ites
DYEAR=1900
DGENRE=
TTITLE0=The Martin Andn The Coys
TTITLE1=Down The Road Of Life
TTITLE2=The Last Mile Of The Way
TTITLE3=Nobody´s Darling On Earth
TTITLE4=What It Means To Be Lonesome
TTITLE5=Here To Get My Baby Out Of Jail
TTITLE6=Trouble In Mind
TTITLE7=Frankie And Johnnie
TTITLE8=Intoxicated Rat
TTITLE9=Ace In The Hole
TTITLE10=An Old Rocking Chair
TTITLE11=In The Shade Of The Old Apple Tree
TTITLE12=Somebody Is Waiting For You
TTITLE13=Diamond In The Rough
TTITLE14=Mary Don´t Go
TTITLE15=Prisoner´s Dream
TTITLE16=Just A Rose Will Do
TTITLE17=If You Don´t Like Your Uncle Sammy
TTITLE18=Darling Nelly Across The Sea
TTITLE19=Budded Roses
EXTD=1968
EXTT0=
EXTT1=
EXTT2=
EXTT3=
EXTT4=
EXTT5=
EXTT6=
EXTT7=
EXTT8=
EXTT9=
EXTT10=
EXTT11=
EXTT12=
EXTT13=
EXTT14=
EXTT15=
EXTT16=
EXTT17=
EXTT18=
EXTT19=
PLAYORDER=
